<?xml version="1.0" encoding="utf-8"?>
<!-- Svg Vector Icons : http://www.onlinewebfonts.com/icon -->
<!DOCTYPE svg PUBLIC "-//W3C//DTD SVG 1.1//EN" "http://www.w3.org/Graphics/SVG/1.1/DTD/svg11.dtd">
<svg version="1.1" xmlns="http://www.w3.org/2000/svg" xmlns:xlink="http://www.w3.org/1999/xlink" x="0px" y="0px" viewBox="0 0 1000 1000" enable-background="new 0 0 1000 1000" xml:space="preserve">
<metadata> Svg Vector Icons : http://www.onlinewebfonts.com/icon </metadata>
<g><path fill="#ff7f0e" d="M441.4,545.2v297c0,43.5-31.3,78.9-69.7,78.9H208.2c-65.9,0-119-28.4-153.5-82C25.5,793.6,10,729.9,10,654.9c0-117.7,36.9-251.3,98.8-357.4C180.3,175,273.6,107.5,371.7,107.5c38.4,0,69.7,35.4,69.7,78.9v81.1c0,14.5-11.7,26.2-26.2,26.2c-14.5,0-26.2-11.7-26.2-26.2v-81.1c0-15.1-9.1-26.4-17.2-26.4c-106.1,0-181.9,102.7-217.6,163.9c-56.6,97-91.7,223.8-91.7,331c0,64.9,12.6,118.8,36.4,155.8c24.7,38.4,61.5,57.9,109.3,57.9h163.5c8.1,0,17.2-11.3,17.2-26.4v-297c0-14.5,11.7-26.2,26.2-26.2C429.7,519,441.4,530.7,441.4,545.2z M891.2,297.5C819.7,175,726.4,107.5,628.3,107.5c-38.4,0-69.7,35.4-69.7,78.9v82c0,14.5,11.7,26.2,26.2,26.2c14.5,0,26.2-11.7,26.2-26.2v-82c0-15.1,9.1-26.4,17.2-26.4c106.1,0,181.9,102.7,217.6,163.9c56.6,97,91.7,223.8,91.7,331c0,64.9-12.6,118.8-36.4,155.8c-24.7,38.4-61.5,57.9-109.3,57.9H628.3c-8.1,0-17.2-11.3-17.2-26.4V541.3c0-14.5-11.7-26.2-26.2-26.2c-14.5,0-26.2,11.7-26.2,26.2v300.8c0,43.5,31.3,78.9,69.7,78.9h163.5c65.9,0,119-28.4,153.5-82c29.3-45.5,44.7-109.2,44.7-184.2C990,537.2,953.1,403.6,891.2,297.5z M646.9,615.8c0,14.5,11.7,26.2,26.2,26.2c14.5,0,26.2-11.7,26.2-26.2v-76.5l69.1,32.9c13.1,6.2,28.7,0.7,35-12.4c6.2-13.1,0.7-28.7-12.4-35l-102-48.6L526.2,301.5V105.2c0-14.5-11.7-26.2-26.2-26.2c-14.5,0-26.2,11.7-26.2,26.2v196.3L311.1,476.2l-102.1,48.6c-13.1,6.2-18.6,21.9-12.4,35c6.2,13.1,21.9,18.6,35,12.4l69.1-32.9v76.5c0,14.5,11.7,26.2,26.2,26.2s26.2-11.7,26.2-26.2V508.1L500,350.3L646.9,508V615.8L646.9,615.8z"/><g></g><g></g><g></g><g></g><g></g><g></g><g></g><g></g><g></g><g></g><g></g><g></g><g></g><g></g><g></g></g>
</svg>